<?xml version="1.0" standalone="no"?>
<!DOCTYPE svg PUBLIC "-//W3C//DTD SVG 20010904//EN"
 "http://www.w3.org/TR/2001/REC-SVG-20010904/DTD/svg10.dtd">
<svg version="1.0" xmlns="http://www.w3.org/2000/svg"
 width="900.000000pt" height="900.000000pt" viewBox="0 0 900.000000 900.000000"
 preserveAspectRatio="xMidYMid meet">
<metadata>
Created by potrace 1.10, written by Peter Selinger 2001-2011
</metadata>
<g transform="translate(0.000000,900.000000) scale(0.100000,-0.100000)"
fill="#117ec3" stroke="none">
<path d="M2759 8196 c-3 -3 -47 -10 -99 -17 -110 -14 -140 -23 -140 -43 0 -7
17 -21 38 -30 33 -15 118 -57 149 -74 6 -4 44 -29 85 -57 84 -57 95 -64 163
-99 54 -28 68 -37 130 -76 61 -38 78 -48 103 -61 12 -7 22 -16 22 -21 0 -4 4
-8 10 -8 9 0 221 -156 230 -170 3 -4 23 -20 46 -36 23 -16 86 -64 142 -106 56
-43 104 -78 107 -78 4 0 33 -20 65 -45 32 -25 61 -45 65 -45 8 0 69 -43 73
-52 2 -5 8 -8 14 -8 15 0 112 -88 131 -119 16 -28 16 -29 -12 -67 -15 -22 -30
-44 -32 -50 -4 -12 -48 -72 -258 -357 -130 -177 -261 -320 -376 -412 -27 -22
-85 -75 -128 -117 l-79 -78 65 0 c35 0 84 7 107 15 23 8 63 15 89 15 25 0 64
7 86 15 22 8 56 14 76 15 86 1 340 86 450 150 27 17 52 30 55 30 17 0 203 151
264 215 41 43 111 115 155 160 44 45 116 120 159 168 44 48 85 87 92 87 7 0
27 8 46 17 62 31 68 33 93 33 14 0 25 -4 25 -8 0 -13 -30 -73 -54 -107 -33
-47 -44 -66 -61 -107 -3 -7 -16 -31 -28 -53 -13 -22 -41 -71 -62 -110 -21 -38
-42 -71 -47 -73 -4 -2 -8 -11 -8 -21 0 -9 -4 -21 -9 -27 -6 -5 -27 -43 -49
-84 -41 -78 -93 -174 -123 -225 -10 -16 -29 -52 -44 -80 -14 -27 -29 -57 -34
-65 -31 -51 -100 -172 -119 -210 -13 -25 -32 -61 -44 -80 -11 -19 -32 -57 -47
-83 -14 -26 -41 -74 -58 -105 -18 -31 -36 -64 -40 -72 -4 -8 -26 -46 -48 -85
-23 -38 -57 -97 -75 -130 -18 -33 -45 -78 -58 -100 -14 -22 -37 -60 -50 -85
-41 -74 -52 -94 -72 -125 -11 -16 -24 -39 -30 -50 -13 -24 -16 -30 -98 -165
-35 -58 -68 -114 -75 -125 -7 -11 -23 -38 -37 -60 -14 -22 -29 -48 -33 -57
-12 -32 -53 -15 -83 34 -21 32 -93 76 -154 91 -62 17 -68 16 -128 -2 -121 -37
-199 -126 -247 -281 -25 -82 -26 -313 -1 -400 11 -36 23 -69 27 -75 18 -19 9
-53 -18 -71 -35 -24 -64 -41 -83 -50 -57 -29 -159 -110 -235 -188 -70 -72 -95
-105 -113 -151 -48 -121 -39 -212 29 -289 42 -48 43 -66 3 -112 -36 -41 -73
-89 -177 -229 -57 -77 -114 -151 -126 -165 -45 -50 -67 -76 -106 -125 -21 -28
-42 -52 -46 -55 -23 -19 -99 -136 -99 -154 0 -12 -7 -31 -15 -42 -8 -10 -15
-32 -15 -48 0 -16 -5 -46 -12 -68 -9 -31 -9 -50 2 -91 18 -72 16 -269 -3 -316
-19 -44 -65 -183 -77 -231 -9 -38 -35 -110 -49 -138 -5 -9 -16 -44 -26 -77
-10 -33 -23 -80 -31 -105 -7 -25 -20 -72 -29 -105 -9 -33 -23 -83 -31 -111 -8
-28 -14 -64 -14 -80 0 -16 -9 -55 -20 -87 -11 -31 -20 -64 -20 -74 0 -20 -14
-64 -51 -161 -16 -40 -31 -95 -35 -123 -6 -48 -6 -49 21 -49 24 0 78 34 124
78 8 8 78 62 155 120 78 58 143 108 146 111 8 9 63 46 80 54 8 4 29 16 45 27
17 11 39 24 50 29 11 5 29 17 40 28 11 10 43 36 70 58 28 22 73 60 100 85 28
25 86 77 130 115 161 142 181 161 244 222 59 57 68 63 107 63 37 0 62 8 124
41 8 5 49 26 90 47 142 72 229 141 230 183 0 8 5 20 12 27 21 21 64 155 78
241 5 29 13 58 19 64 6 6 11 27 11 47 0 20 7 62 15 93 8 32 15 75 15 95 0 20
7 50 15 66 8 15 15 40 15 55 0 23 10 63 42 156 5 17 14 48 19 70 6 22 14 44
20 50 5 5 9 19 9 32 0 12 7 38 15 58 8 19 22 51 30 70 20 46 35 51 103 32 107
-30 660 -44 937 -23 384 29 599 64 765 125 30 11 73 24 95 30 43 10 91 26 142
48 17 7 36 13 41 13 6 0 23 6 39 14 15 8 48 22 73 31 25 10 60 24 77 32 18 7
50 21 70 30 21 9 45 20 53 24 8 5 38 20 65 34 28 14 59 31 70 38 35 22 209
154 244 186 l35 31 120 0 c118 0 216 14 317 46 26 7 56 14 67 14 11 0 36 7 55
15 20 8 46 15 58 15 32 0 98 33 99 48 0 17 -40 51 -61 52 -8 0 -24 7 -35 15
-10 8 -36 15 -56 15 -21 0 -57 6 -80 14 -24 8 -55 17 -70 20 -16 4 -28 12 -28
19 1 12 63 57 80 57 4 0 21 7 36 15 16 8 37 15 47 15 9 0 17 5 17 12 0 8 -33
9 -125 4 -151 -8 -150 -9 -67 112 31 46 62 91 67 100 6 9 21 33 35 52 14 19
34 52 45 74 25 49 82 96 116 96 15 0 40 7 56 15 15 7 48 23 73 35 25 12 54 26
65 33 10 7 36 22 57 35 49 29 52 64 8 82 -42 17 -52 38 -32 69 9 14 19 28 22
31 4 3 10 12 13 20 4 8 16 29 26 45 11 17 30 50 42 75 13 25 46 78 74 118 27
41 57 84 65 97 43 66 91 134 119 165 23 25 31 43 29 65 -3 29 -5 30 -45 28
-24 -1 -55 -8 -70 -16 -16 -8 -60 -31 -100 -51 -39 -19 -88 -45 -108 -56 -19
-11 -45 -20 -56 -20 -20 0 -21 4 -15 63 20 204 27 478 16 582 -12 115 -55 315
-81 380 -4 11 -18 45 -30 75 -55 140 -180 341 -274 440 -68 72 -226 223 -295
282 -84 72 -326 247 -389 283 -20 11 -65 39 -100 63 -35 23 -67 42 -71 42 -4
0 -13 7 -20 15 -7 9 -20 13 -29 10 -9 -3 -40 7 -69 22 -28 16 -76 41 -106 57
-30 16 -57 35 -60 43 -3 8 1 38 10 66 8 29 20 69 27 91 13 46 27 53 64 33 15
-8 46 -22 68 -31 22 -10 53 -24 68 -32 16 -8 37 -14 47 -14 9 0 23 -7 30 -15
7 -8 19 -15 27 -15 8 0 27 -6 41 -13 15 -8 43 -21 62 -29 58 -25 421 -207 485
-243 57 -32 67 -38 98 -50 6 -3 26 -14 42 -25 17 -11 46 -27 65 -37 19 -9 38
-19 43 -21 4 -2 7 188 7 422 l0 426 -1122 -1 c-990 -1 -1115 -3 -1058 -15 36
-8 97 -19 137 -24 40 -5 81 -14 92 -19 11 -6 34 -11 51 -11 18 0 62 -7 99 -15
59 -13 116 -24 221 -44 62 -11 56 -26 -72 -175 -25 -30 -28 -30 -60 -18 -41
17 -133 39 -216 52 -35 6 -72 15 -82 20 -10 6 -31 10 -47 10 -15 0 -41 7 -57
15 -15 8 -36 15 -45 15 -9 0 -29 7 -45 15 -15 8 -39 15 -53 15 -34 0 -75 23
-183 105 -147 110 -283 196 -405 254 -38 19 -77 38 -85 42 -16 9 -19 11 -85
36 -22 8 -53 20 -70 27 -75 32 -173 60 -258 76 -26 5 -58 12 -70 16 -108 35
-459 74 -668 74 -86 0 -158 -2 -160 -4z m2969 -544 c22 -31 19 -43 -25 -90
-14 -15 -29 -36 -34 -47 -5 -11 -14 -29 -21 -40 -19 -33 -89 -174 -102 -205
-3 -8 -10 -22 -15 -30 -5 -8 -12 -22 -15 -30 -3 -8 -10 -22 -14 -30 -9 -15
-35 -71 -46 -100 -3 -8 -10 -22 -14 -30 -5 -8 -16 -31 -24 -50 -8 -19 -22 -51
-30 -70 -9 -19 -19 -42 -22 -50 -3 -8 -10 -22 -15 -30 -5 -8 -12 -22 -15 -30
-3 -8 -10 -22 -15 -30 -5 -8 -12 -22 -15 -30 -3 -8 -10 -22 -15 -30 -5 -8 -12
-22 -15 -30 -3 -8 -10 -23 -16 -33 -5 -9 -15 -25 -20 -35 -6 -9 -12 -23 -15
-29 -3 -7 -7 -19 -10 -25 -3 -7 -9 -20 -14 -28 -5 -8 -12 -22 -15 -30 -3 -8
-10 -22 -15 -30 -5 -8 -12 -22 -15 -30 -3 -8 -11 -24 -18 -35 -20 -36 -58
-111 -72 -145 -3 -8 -10 -22 -15 -30 -5 -8 -12 -22 -15 -30 -3 -8 -10 -22 -15
-30 -5 -8 -12 -22 -15 -30 -6 -15 -11 -25 -34 -65 -7 -11 -15 -27 -18 -35 -3
-8 -8 -19 -10 -25 -2 -5 -8 -17 -13 -25 -5 -8 -12 -22 -15 -30 -3 -8 -10 -22
-15 -30 -5 -8 -12 -22 -15 -30 -3 -8 -10 -23 -16 -32 -17 -30 -26 -48 -101
-198 -40 -80 -76 -146 -81 -148 -4 -2 -8 -12 -8 -22 0 -9 -7 -23 -15 -30 -8
-7 -15 -20 -15 -30 0 -10 -7 -23 -15 -30 -8 -7 -15 -20 -15 -29 0 -9 -4 -21
-9 -27 -10 -9 -112 -206 -254 -489 -75 -150 -108 -195 -142 -195 -26 0 -122
-50 -181 -94 -49 -37 -109 -113 -136 -176 -25 -56 -58 -168 -58 -196 0 -12 -7
-27 -15 -34 -12 -10 -20 -9 -41 5 -21 14 -41 16 -94 13 -37 -3 -75 -1 -83 4
-9 4 -21 32 -28 62 -9 43 -9 58 2 79 12 22 132 218 181 295 9 15 26 44 37 64
11 21 33 57 48 80 38 59 51 81 59 98 4 8 27 48 51 88 24 41 43 75 43 78 0 2
26 48 58 101 32 54 61 105 65 113 4 8 15 27 25 42 19 29 118 192 150 248 12
19 32 58 46 85 14 28 44 84 67 125 22 41 63 117 91 169 28 52 60 111 72 130
12 20 32 56 44 81 13 25 38 72 57 105 18 33 43 80 56 105 12 25 34 63 48 85
13 22 41 72 61 110 47 90 98 181 125 225 12 19 25 42 28 50 4 8 16 29 27 45
11 17 24 39 30 50 6 11 19 34 30 50 11 17 23 37 27 45 13 28 190 288 212 311
11 12 30 41 42 63 12 23 24 43 28 46 3 3 30 34 60 70 30 36 79 89 109 118 51
48 58 52 103 52 41 0 50 -4 67 -28z m-152 -1079 c4 -16 12 -34 17 -42 54 -68
137 -282 137 -353 0 -20 5 -49 11 -65 6 -15 15 -62 19 -103 4 -41 13 -93 19
-115 17 -63 14 -318 -4 -362 -8 -19 -15 -45 -15 -57 0 -12 -7 -31 -15 -42 -8
-10 -15 -25 -15 -32 0 -14 -40 -75 -52 -80 -5 -2 -8 -10 -8 -17 0 -16 -75 -92
-105 -106 -11 -6 -47 -25 -80 -44 -33 -19 -96 -52 -140 -75 -44 -22 -87 -45
-95 -50 -8 -5 -35 -18 -60 -30 -25 -11 -52 -25 -60 -29 -18 -11 -99 -46 -192
-85 -18 -8 -50 -21 -71 -30 -21 -9 -43 -16 -49 -16 -6 0 -19 -6 -27 -14 -9 -7
-38 -26 -65 -40 -39 -22 -51 -24 -57 -14 -12 18 -11 21 6 44 8 10 15 28 15 40
0 11 11 41 25 65 14 24 27 51 31 59 3 8 8 20 10 25 2 6 8 17 13 25 5 8 39 76
76 150 37 74 77 155 89 180 13 25 36 74 53 110 17 36 51 109 77 163 25 53 67
141 92 195 25 53 50 104 55 112 5 8 12 22 15 30 9 24 65 144 75 160 5 8 12 22
15 30 6 16 47 105 81 175 29 60 57 105 66 105 4 0 7 13 7 30 0 30 35 109 54
122 23 16 46 8 52 -19z m-1119 -1916 c43 -13 88 -36 110 -54 71 -62 163 -156
163 -167 0 -7 5 -17 11 -23 19 -19 79 -208 79 -251 0 -24 7 -74 16 -112 18
-79 15 -229 -5 -325 -28 -131 -114 -292 -189 -355 -51 -43 -53 -44 -92 -65
-19 -11 -43 -26 -53 -34 -28 -23 -219 -21 -245 2 -10 9 -24 17 -32 17 -17 0
-78 38 -119 75 -38 34 -151 179 -151 193 0 5 -7 15 -15 22 -8 7 -15 20 -15 30
0 10 -7 31 -15 46 -8 16 -15 39 -15 50 0 12 -7 35 -15 50 -11 22 -15 67 -15
194 1 91 5 185 10 210 6 25 15 71 20 103 6 32 15 66 19 75 5 9 14 28 20 42 12
29 55 101 90 152 14 19 41 46 60 59 20 13 38 27 41 31 8 10 128 48 154 48 11
0 28 5 36 10 18 13 52 7 147 -23z m-1081 -187 c68 -36 136 -112 167 -185 9
-22 22 -82 28 -133 12 -87 12 -94 -7 -119 -11 -14 -33 -33 -49 -42 -17 -9 -57
-34 -90 -56 -72 -47 -94 -61 -120 -75 -11 -6 -33 -19 -50 -30 -16 -11 -37 -23
-45 -26 -8 -4 -45 -25 -82 -46 -37 -22 -74 -38 -83 -36 -39 7 -68 152 -68 333
-1 113 14 208 34 230 5 5 9 16 9 25 0 32 86 126 140 154 73 38 152 41 216 6z
m-138 -1526 c2 -12 -4 -28 -12 -37 -9 -9 -16 -18 -16 -21 0 -3 -19 -38 -43
-78 -24 -40 -46 -80 -50 -88 -23 -48 -155 -271 -166 -280 -8 -7 -26 -36 -58
-97 -15 -29 -31 -53 -35 -53 -4 0 -8 -5 -8 -11 0 -6 -26 -55 -58 -108 -32 -53
-61 -103 -65 -111 -4 -8 -16 -28 -27 -45 -11 -16 -24 -39 -30 -50 -6 -11 -19
-33 -30 -50 -11 -16 -23 -37 -26 -45 -4 -8 -25 -45 -47 -82 -42 -73 -56 -80
-105 -54 -15 7 -54 21 -87 30 -33 10 -73 22 -90 27 -68 23 -160 38 -201 32
-40 -5 -44 -4 -54 21 -5 15 -10 79 -10 142 0 94 4 123 20 160 11 24 25 44 30
44 6 0 10 5 10 10 0 14 72 110 82 110 4 0 8 5 8 11 0 11 48 75 97 129 13 14
23 28 23 32 0 3 6 13 13 20 7 7 40 49 74 93 34 44 75 95 92 113 17 18 31 37
31 43 0 5 4 9 8 9 5 0 27 26 51 58 63 87 75 92 236 92 77 0 145 5 156 11 11 5
55 11 99 13 44 2 85 8 92 13 34 28 92 26 96 -3z m-1075 -1371 c56 -42 139
-115 185 -161 81 -82 83 -85 65 -104 -57 -63 -197 -201 -252 -248 -87 -75 -97
-84 -196 -174 -104 -96 -143 -126 -166 -126 -25 0 -28 19 -12 75 8 28 18 68
22 90 4 22 13 50 19 62 7 12 12 32 12 45 0 13 6 43 14 68 8 25 21 68 30 96 9
29 16 57 16 64 0 7 6 26 13 43 18 42 43 123 52 164 4 18 11 35 16 38 5 4 9 18
9 33 1 39 36 112 55 112 9 0 62 -35 118 -77z"/>
<path d="M5494 6233 c-3 -10 -12 -31 -20 -46 -7 -16 -14 -35 -14 -44 0 -8 -7
-27 -14 -41 -8 -15 -22 -45 -31 -67 -27 -65 -72 -165 -135 -300 -15 -33 -31
-67 -34 -75 -3 -8 -10 -22 -15 -30 -10 -19 -88 -180 -131 -275 -33 -73 -65
-139 -79 -165 -12 -22 -51 -110 -51 -115 0 -9 66 -5 76 4 5 5 34 19 64 32 30
12 73 35 94 51 22 15 50 28 63 28 13 0 23 3 23 8 0 4 17 16 37 27 93 50 231
189 233 233 0 8 7 27 15 43 8 16 22 42 30 58 18 35 21 315 5 371 -6 19 -15 64
-20 100 -21 152 -34 203 -55 211 -30 12 -35 11 -41 -8z"/>
<path d="M2070 5233 c1 -2221 2 -2516 15 -2498 22 29 129 149 207 231 l68 70
-6 95 c-5 72 -3 104 10 139 9 25 16 53 16 63 0 17 14 49 41 97 5 8 12 22 16
30 27 62 226 260 261 260 6 0 12 3 14 8 5 11 66 52 78 52 13 0 13 37 1 45 -18
11 -22 90 -11 205 7 63 15 151 20 195 10 107 53 221 107 284 40 46 123 111
142 111 5 0 22 7 37 15 41 21 252 21 280 0 25 -19 64 -19 64 -1 0 8 6 21 13
28 7 7 16 20 20 28 4 8 16 29 27 45 11 17 24 39 30 50 6 11 19 34 30 50 11 17
25 40 31 53 7 12 15 22 19 22 4 0 10 8 14 18 7 21 22 45 59 93 15 20 27 40 27
43 0 3 20 35 45 72 25 36 45 68 45 71 0 3 13 22 30 43 17 21 30 41 30 44 0 9
43 70 53 74 4 2 7 8 7 13 0 9 38 69 51 79 4 3 9 15 13 28 4 12 11 22 15 22 4
0 17 19 30 43 12 23 31 56 41 72 10 17 37 66 59 110 63 123 99 189 110 202 6
7 11 19 11 26 0 8 6 20 14 26 8 7 17 23 20 36 4 14 11 25 16 25 6 0 10 5 10
11 0 6 14 31 30 56 42 61 38 70 -15 31 -25 -18 -53 -37 -63 -43 -9 -5 -19 -12
-22 -16 -8 -8 -110 -69 -134 -80 -21 -9 -32 -15 -71 -37 -11 -7 -27 -15 -35
-18 -8 -3 -28 -12 -45 -19 -92 -39 -108 -45 -128 -45 -12 0 -31 -7 -41 -15
-11 -8 -35 -15 -54 -15 -18 0 -43 -5 -55 -12 -12 -6 -58 -15 -102 -19 -44 -4
-102 -13 -129 -18 -27 -6 -156 -12 -287 -12 -215 -1 -239 0 -261 17 -25 19
-48 58 -48 81 0 23 21 49 159 191 75 77 152 157 171 178 159 174 279 305 309
335 20 19 68 71 106 115 85 96 123 138 165 184 17 19 36 44 41 55 6 11 16 31
24 45 17 30 10 40 -73 96 -31 21 -59 41 -62 45 -3 3 -12 9 -20 13 -20 9 -43
23 -115 70 -33 22 -80 51 -105 64 -76 42 -94 52 -125 72 -16 11 -37 22 -45 26
-8 3 -22 9 -30 14 -8 5 -76 38 -150 75 -74 36 -142 71 -150 76 -8 5 -21 11
-27 14 -7 3 -19 7 -25 10 -7 3 -20 9 -28 13 -8 5 -33 17 -55 27 -22 9 -52 24
-67 31 -14 8 -33 14 -41 14 -8 0 -20 7 -27 15 -7 8 -23 15 -35 15 -12 0 -28 7
-35 15 -7 8 -20 15 -29 15 -10 0 -26 7 -37 15 -15 12 -62 14 -241 15 l-223 0
0 -2517z"/>
<path d="M6970 3132 c-8 -3 -17 -8 -20 -12 -3 -3 -108 -57 -235 -119 -126 -62
-237 -117 -245 -122 -8 -5 -22 -12 -30 -15 -8 -4 -33 -14 -55 -24 -22 -10 -67
-30 -100 -45 -33 -15 -89 -41 -125 -58 -36 -16 -78 -36 -95 -42 -16 -7 -47
-20 -68 -29 -21 -9 -46 -16 -57 -16 -10 0 -21 -4 -25 -9 -3 -6 -27 -13 -53
-17 -26 -4 -59 -13 -74 -20 -15 -8 -38 -14 -51 -14 -14 0 -38 -7 -53 -15 -16
-8 -41 -15 -55 -15 -15 0 -40 -7 -55 -15 -16 -8 -45 -15 -65 -15 -20 0 -53 -7
-72 -15 -20 -8 -53 -15 -74 -15 -21 0 -56 -7 -78 -15 -22 -8 -62 -14 -90 -15
-27 0 -72 -7 -99 -15 -27 -8 -83 -15 -125 -15 -42 0 -105 -5 -141 -11 -36 -6
-130 -15 -210 -20 -80 -5 -181 -14 -225 -19 -106 -12 -387 -11 -450 1 -27 5
-69 12 -92 15 -43 7 -43 6 -43 -25 0 -17 -7 -48 -15 -68 -8 -19 -15 -54 -15
-77 -1 -22 -7 -52 -15 -66 -8 -14 -15 -43 -15 -65 0 -22 -7 -51 -15 -65 -8
-14 -14 -38 -15 -55 0 -16 -7 -43 -15 -59 -8 -15 -15 -41 -15 -58 0 -16 -7
-42 -15 -58 -8 -16 -12 -30 -7 -32 4 -2 755 -2 1670 0 l1662 2 0 674 c0 371
-3 677 -7 679 -5 2 -15 2 -23 -1z"/>
</g>
</svg>
